<?xml version="1.0" standalone="no"?>
<svg xmlns:xlink="http://www.w3.org/1999/xlink" id="wave" style="transform:rotate(0deg); transition: 0.3s" viewBox="0 0 1440 490" version="1.1" xmlns="http://www.w3.org/2000/svg"><defs><linearGradient id="sw-gradient-0" x1="0" x2="0" y1="1" y2="0"><stop stop-color="rgba(0, 212, 255, 1)" offset="0%"/><stop stop-color="rgba(0, 85, 255, 1)" offset="100%"/></linearGradient></defs><path style="transform:translate(0, 0px); opacity:1" fill="url(#sw-gradient-0)" d="M0,343L80,310.3C160,278,320,212,480,196C640,180,800,212,960,245C1120,278,1280,310,1440,285.8C1600,261,1760,180,1920,187.8C2080,196,2240,294,2400,277.7C2560,261,2720,131,2880,122.5C3040,114,3200,229,3360,261.3C3520,294,3680,245,3840,245C4000,245,4160,294,4320,277.7C4480,261,4640,180,4800,147C4960,114,5120,131,5280,130.7C5440,131,5600,114,5760,130.7C5920,147,6080,196,6240,228.7C6400,261,6560,278,6720,302.2C6880,327,7040,359,7200,383.8C7360,408,7520,425,7680,400.2C7840,376,8000,310,8160,269.5C8320,229,8480,212,8640,179.7C8800,147,8960,98,9120,106.2C9280,114,9440,180,9600,236.8C9760,294,9920,343,10080,302.2C10240,261,10400,131,10560,106.2C10720,82,10880,163,11040,171.5C11200,180,11360,114,11440,81.7L11520,49L11520,490L11440,490C11360,490,11200,490,11040,490C10880,490,10720,490,10560,490C10400,490,10240,490,10080,490C9920,490,9760,490,9600,490C9440,490,9280,490,9120,490C8960,490,8800,490,8640,490C8480,490,8320,490,8160,490C8000,490,7840,490,7680,490C7520,490,7360,490,7200,490C7040,490,6880,490,6720,490C6560,490,6400,490,6240,490C6080,490,5920,490,5760,490C5600,490,5440,490,5280,490C5120,490,4960,490,4800,490C4640,490,4480,490,4320,490C4160,490,4000,490,3840,490C3680,490,3520,490,3360,490C3200,490,3040,490,2880,490C2720,490,2560,490,2400,490C2240,490,2080,490,1920,490C1760,490,1600,490,1440,490C1280,490,1120,490,960,490C800,490,640,490,480,490C320,490,160,490,80,490L0,490Z"/></svg>