<?xml version="1.0" standalone="no"?>
<svg xmlns:xlink="http://www.w3.org/1999/xlink" id="wave" preserveAspectRatio="none" style="transform:rotate(0deg); transition: 0.3s" viewBox="0 0 1440 200" version="1.1" xmlns="http://www.w3.org/2000/svg"><defs><linearGradient id="sw-gradient-0" x1="0" x2="0" y1="1" y2="0"><stop stop-color="rgba(0, 85, 255, 1)" offset="0%"/><stop stop-color="rgba(0, 213, 255, 1)" offset="100%"/></linearGradient></defs><path style="transform:translate(0, 0px); opacity:1" fill="url(#sw-gradient-0)" d="M0,60L40,50C80,40,160,20,240,30C320,40,400,80,480,86.7C560,93,640,67,720,46.7C800,27,880,13,960,16.7C1040,20,1120,40,1200,50C1280,60,1360,60,1440,56.7C1520,53,1600,47,1680,60C1760,73,1840,107,1920,103.3C2000,100,2080,60,2160,53.3C2240,47,2320,73,2400,83.3C2480,93,2560,87,2640,83.3C2720,80,2800,80,2880,86.7C2960,93,3040,107,3120,96.7C3200,87,3280,53,3360,33.3C3440,13,3520,7,3600,20C3680,33,3760,67,3840,90C3920,113,4000,127,4080,126.7C4160,127,4240,113,4320,110C4400,107,4480,113,4560,110C4640,107,4720,93,4800,103.3C4880,113,4960,147,5040,136.7C5120,127,5200,73,5280,56.7C5360,40,5440,60,5520,66.7C5600,73,5680,67,5720,63.3L5760,60L5760,200L5720,200C5680,200,5600,200,5520,200C5440,200,5360,200,5280,200C5200,200,5120,200,5040,200C4960,200,4880,200,4800,200C4720,200,4640,200,4560,200C4480,200,4400,200,4320,200C4240,200,4160,200,4080,200C4000,200,3920,200,3840,200C3760,200,3680,200,3600,200C3520,200,3440,200,3360,200C3280,200,3200,200,3120,200C3040,200,2960,200,2880,200C2800,200,2720,200,2640,200C2560,200,2480,200,2400,200C2320,200,2240,200,2160,200C2080,200,2000,200,1920,200C1840,200,1760,200,1680,200C1600,200,1520,200,1440,200C1360,200,1280,200,1200,200C1120,200,1040,200,960,200C880,200,800,200,720,200C640,200,560,200,480,200C400,200,320,200,240,200C160,200,80,200,40,200L0,200Z"/><defs><linearGradient id="sw-gradient-1" x1="0" x2="0" y1="1" y2="0"><stop stop-color="rgba(0, 85, 255, 1)" offset="0%"/><stop stop-color="rgba(0, 213, 255, 1)" offset="100%"/></linearGradient></defs><path style="transform:translate(0, 50px); opacity:0.9" fill="url(#sw-gradient-1)" d="M0,80L40,90C80,100,160,120,240,123.3C320,127,400,113,480,93.3C560,73,640,47,720,46.7C800,47,880,73,960,96.7C1040,120,1120,140,1200,123.3C1280,107,1360,53,1440,50C1520,47,1600,93,1680,96.7C1760,100,1840,60,1920,36.7C2000,13,2080,7,2160,13.3C2240,20,2320,40,2400,70C2480,100,2560,140,2640,160C2720,180,2800,180,2880,160C2960,140,3040,100,3120,76.7C3200,53,3280,47,3360,56.7C3440,67,3520,93,3600,106.7C3680,120,3760,120,3840,106.7C3920,93,4000,67,4080,66.7C4160,67,4240,93,4320,96.7C4400,100,4480,80,4560,90C4640,100,4720,140,4800,153.3C4880,167,4960,153,5040,143.3C5120,133,5200,127,5280,120C5360,113,5440,107,5520,93.3C5600,80,5680,60,5720,50L5760,40L5760,200L5720,200C5680,200,5600,200,5520,200C5440,200,5360,200,5280,200C5200,200,5120,200,5040,200C4960,200,4880,200,4800,200C4720,200,4640,200,4560,200C4480,200,4400,200,4320,200C4240,200,4160,200,4080,200C4000,200,3920,200,3840,200C3760,200,3680,200,3600,200C3520,200,3440,200,3360,200C3280,200,3200,200,3120,200C3040,200,2960,200,2880,200C2800,200,2720,200,2640,200C2560,200,2480,200,2400,200C2320,200,2240,200,2160,200C2080,200,2000,200,1920,200C1840,200,1760,200,1680,200C1600,200,1520,200,1440,200C1360,200,1280,200,1200,200C1120,200,1040,200,960,200C880,200,800,200,720,200C640,200,560,200,480,200C400,200,320,200,240,200C160,200,80,200,40,200L0,200Z"/></svg>