<?xml version="1.0"  standalone="no"?>
<svg xmlns:xlink="http://www.w3.org/1999/xlink" id="wave" style="transform:rotate(180deg); transition: 0.3s" preserveAspectRatio="none" viewBox="0 0 1440 490" version="1.1" xmlns="http://www.w3.org/2000/svg"><defs><linearGradient id="sw-gradient-0" x1="0" x2="0" y1="1" y2="0"><stop stop-color="rgba(0, 85, 255, 1)" offset="0%"/><stop stop-color="rgba(0, 212, 255, 1)" offset="100%"/></linearGradient></defs><path style="transform:translate(0, 0px); opacity:1" fill="url(#sw-gradient-0)" d="M0,441L60,400.2C120,359,240,278,360,212.3C480,147,600,98,720,114.3C840,131,960,212,1080,261.3C1200,310,1320,327,1440,351.2C1560,376,1680,408,1800,416.5C1920,425,2040,408,2160,392C2280,376,2400,359,2520,310.3C2640,261,2760,180,2880,187.8C3000,196,3120,294,3240,334.8C3360,376,3480,359,3600,367.5C3720,376,3840,408,3960,424.7C4080,441,4200,441,4320,408.3C4440,376,4560,310,4680,236.8C4800,163,4920,82,5040,114.3C5160,147,5280,294,5400,294C5520,294,5640,147,5760,106.2C5880,65,6000,131,6120,147C6240,163,6360,131,6480,114.3C6600,98,6720,98,6840,138.8C6960,180,7080,261,7200,285.8C7320,310,7440,278,7560,285.8C7680,294,7800,343,7920,318.5C8040,294,8160,196,8280,204.2C8400,212,8520,327,8580,383.8L8640,441L8640,490L8580,490C8520,490,8400,490,8280,490C8160,490,8040,490,7920,490C7800,490,7680,490,7560,490C7440,490,7320,490,7200,490C7080,490,6960,490,6840,490C6720,490,6600,490,6480,490C6360,490,6240,490,6120,490C6000,490,5880,490,5760,490C5640,490,5520,490,5400,490C5280,490,5160,490,5040,490C4920,490,4800,490,4680,490C4560,490,4440,490,4320,490C4200,490,4080,490,3960,490C3840,490,3720,490,3600,490C3480,490,3360,490,3240,490C3120,490,3000,490,2880,490C2760,490,2640,490,2520,490C2400,490,2280,490,2160,490C2040,490,1920,490,1800,490C1680,490,1560,490,1440,490C1320,490,1200,490,1080,490C960,490,840,490,720,490C600,490,480,490,360,490C240,490,120,490,60,490L0,490Z"/><defs><linearGradient id="sw-gradient-1" x1="0" x2="0" y1="1" y2="0"><stop stop-color="rgba(0, 85, 255, 1)" offset="0%"/><stop stop-color="rgba(0, 212, 255, 1)" offset="100%"/></linearGradient></defs><path style="transform:translate(0, 50px); opacity:0.9" fill="url(#sw-gradient-1)" d="M0,343L60,285.8C120,229,240,114,360,106.2C480,98,600,196,720,196C840,196,960,98,1080,73.5C1200,49,1320,98,1440,98C1560,98,1680,49,1800,81.7C1920,114,2040,229,2160,228.7C2280,229,2400,114,2520,122.5C2640,131,2760,261,2880,302.2C3000,343,3120,294,3240,302.2C3360,310,3480,376,3600,400.2C3720,425,3840,408,3960,359.3C4080,310,4200,229,4320,220.5C4440,212,4560,278,4680,261.3C4800,245,4920,147,5040,163.3C5160,180,5280,310,5400,359.3C5520,408,5640,376,5760,367.5C5880,359,6000,376,6120,318.5C6240,261,6360,131,6480,81.7C6600,33,6720,65,6840,122.5C6960,180,7080,261,7200,253.2C7320,245,7440,147,7560,89.8C7680,33,7800,16,7920,81.7C8040,147,8160,294,8280,326.7C8400,359,8520,278,8580,236.8L8640,196L8640,490L8580,490C8520,490,8400,490,8280,490C8160,490,8040,490,7920,490C7800,490,7680,490,7560,490C7440,490,7320,490,7200,490C7080,490,6960,490,6840,490C6720,490,6600,490,6480,490C6360,490,6240,490,6120,490C6000,490,5880,490,5760,490C5640,490,5520,490,5400,490C5280,490,5160,490,5040,490C4920,490,4800,490,4680,490C4560,490,4440,490,4320,490C4200,490,4080,490,3960,490C3840,490,3720,490,3600,490C3480,490,3360,490,3240,490C3120,490,3000,490,2880,490C2760,490,2640,490,2520,490C2400,490,2280,490,2160,490C2040,490,1920,490,1800,490C1680,490,1560,490,1440,490C1320,490,1200,490,1080,490C960,490,840,490,720,490C600,490,480,490,360,490C240,490,120,490,60,490L0,490Z"/><defs><linearGradient id="sw-gradient-2" x1="0" x2="0" y1="1" y2="0"><stop stop-color="rgba(0, 85, 255, 1)" offset="0%"/><stop stop-color="rgba(0, 212, 255, 1)" offset="100%"/></linearGradient></defs><path style="transform:translate(0, 100px); opacity:0.8" fill="url(#sw-gradient-2)" d="M0,49L60,73.5C120,98,240,147,360,204.2C480,261,600,327,720,367.5C840,408,960,425,1080,375.7C1200,327,1320,212,1440,212.3C1560,212,1680,327,1800,326.7C1920,327,2040,212,2160,196C2280,180,2400,261,2520,310.3C2640,359,2760,376,2880,375.7C3000,376,3120,359,3240,351.2C3360,343,3480,343,3600,294C3720,245,3840,147,3960,98C4080,49,4200,49,4320,73.5C4440,98,4560,147,4680,179.7C4800,212,4920,229,5040,220.5C5160,212,5280,180,5400,212.3C5520,245,5640,343,5760,392C5880,441,6000,441,6120,383.8C6240,327,6360,212,6480,204.2C6600,196,6720,294,6840,351.2C6960,408,7080,425,7200,432.8C7320,441,7440,441,7560,441C7680,441,7800,441,7920,424.7C8040,408,8160,376,8280,359.3C8400,343,8520,343,8580,343L8640,343L8640,490L8580,490C8520,490,8400,490,8280,490C8160,490,8040,490,7920,490C7800,490,7680,490,7560,490C7440,490,7320,490,7200,490C7080,490,6960,490,6840,490C6720,490,6600,490,6480,490C6360,490,6240,490,6120,490C6000,490,5880,490,5760,490C5640,490,5520,490,5400,490C5280,490,5160,490,5040,490C4920,490,4800,490,4680,490C4560,490,4440,490,4320,490C4200,490,4080,490,3960,490C3840,490,3720,490,3600,490C3480,490,3360,490,3240,490C3120,490,3000,490,2880,490C2760,490,2640,490,2520,490C2400,490,2280,490,2160,490C2040,490,1920,490,1800,490C1680,490,1560,490,1440,490C1320,490,1200,490,1080,490C960,490,840,490,720,490C600,490,480,490,360,490C240,490,120,490,60,490L0,490Z"/></svg>