<?xml version="1.0" standalone="no"?>
<svg xmlns:xlink="http://www.w3.org/1999/xlink" id="wave" style="transform:rotate(0deg); transition: 0.3s" viewBox="0 0 1440 140" version="1.1" xmlns="http://www.w3.org/2000/svg"><defs><linearGradient id="sw-gradient-0" x1="0" x2="0" y1="1" y2="0"><stop stop-color="rgba(0, 85, 255, 1)" offset="0%"/><stop stop-color="rgba(0, 212, 255, 1)" offset="100%"/></linearGradient></defs><path style="transform:translate(0, 0px); opacity:1" fill="url(#sw-gradient-0)" d="M0,112L1440,0L2880,112L4320,42L5760,98L7200,56L8640,56L10080,70L11520,14L12960,84L14400,0L15840,14L17280,56L18720,0L20160,0L21600,28L23040,84L24480,0L25920,42L27360,70L28800,56L30240,14L31680,70L33120,84L34560,112L34560,140L33120,140L31680,140L30240,140L28800,140L27360,140L25920,140L24480,140L23040,140L21600,140L20160,140L18720,140L17280,140L15840,140L14400,140L12960,140L11520,140L10080,140L8640,140L7200,140L5760,140L4320,140L2880,140L1440,140L0,140Z"/></svg>